<svg width="17" height="17" viewBox="0 0 17 17" fill="none" xmlns="http://www.w3.org/2000/svg">
<path d="M11.3125 1H14C15.1046 1 16 1.89543 16 3V14C16 15.1046 15.1046 16 14 16H11.3125M11.3125 1H5.6875M11.3125 1C11.3125 1 12.25 4.75 12.25 8.5C12.25 12.25 11.3125 16 11.3125 16M5.6875 1H3C1.89543 1 1 1.89543 1 3V14C1 15.1046 1.89543 16 3 16H5.6875M5.6875 1C5.6875 1 4.75 4.75 4.75 8.5C4.75 12.25 5.6875 16 5.6875 16M5.6875 16H11.3125M1 11.3125C1 11.3125 1.87877 11.5301 3.15071 11.7486C4.57567 11.9933 6.53783 12.25 8.5 12.25C10.4622 12.25 12.4243 11.9933 13.8493 11.7486C15.1212 11.5301 16 11.3125 16 11.3125M1 5.6875L3.15071 5.25141C4.57567 5.00667 6.53783 4.75 8.5 4.75C10.4622 4.75 12.4243 5.00667 13.8493 5.25141L16 5.6875" stroke="black" stroke-linecap="round" stroke-linejoin="round"/>
</svg>
