<svg width="17" height="17" viewBox="0 0 17 17" fill="none" xmlns="http://www.w3.org/2000/svg">
<path d="M13.1875 16L14.0013 15.9995C15.1054 15.9987 16 15.1035 16 13.9995V3.00306C16 1.89867 15.1049 1.00332 14.0005 1.00306L8.52767 1.00177L3.00364 1.00047C1.89923 1.00021 1.00365 1.89519 1.00317 2.99961L1 10.3737M13.1875 16H3.0026C1.89859 16 1.00339 15.1054 1.0026 14.0014L1 10.3737M13.1875 16L6.16014 8.19108C5.39364 7.33933 4.06964 7.30445 3.25935 8.11465L1 10.3737M13.1875 6.62414C13.1875 7.65956 12.348 8.49893 11.3125 8.49893C10.277 8.49893 9.43749 7.65956 9.43749 6.62414C9.43749 5.58872 10.277 4.74934 11.3125 4.74934C12.348 4.74934 13.1875 5.58872 13.1875 6.62414Z" stroke="black" stroke-linecap="round" stroke-linejoin="round"/>
</svg>
