<svg width="18" height="18" viewBox="0 0 18 18" fill="none" xmlns="http://www.w3.org/2000/svg">
<path d="M3.07424 9.88889V9.88889C2.09371 9.88889 1.29883 9.09401 1.29883 8.11347V7.44444C1.29883 6.33988 2.19426 5.44444 3.29883 5.44444H9.2882M3.07424 9.88889V15C3.07424 16.1046 3.96968 17 5.07425 17H9.2882M3.07424 9.88889H15.5022M15.5022 9.88889V9.88889C16.4827 9.88889 17.2776 9.09401 17.2776 8.11347V7.44445C17.2776 6.33988 16.3822 5.44444 15.2776 5.44444H9.2882M15.5022 9.88889V15C15.5022 16.1046 14.6067 17 13.5022 17H9.2882M9.2882 17V5.44444M9.2882 5.44444V3.22222M9.2882 3.22222C9.2882 1.99492 8.2946 1 7.06893 1C5.84326 1 4.84966 1.99492 4.84966 3.22222C4.84966 4.44952 5.84326 5.44444 7.06893 5.44444M9.2882 3.22222C9.2882 1.99492 10.2818 1 11.5075 1C12.7331 1 13.7267 1.99492 13.7267 3.22222C13.7267 4.44952 12.7331 5.44444 11.5075 5.44444" stroke="#767676" stroke-linecap="round" stroke-linejoin="round"/>
</svg>
