<svg width="48" height="48" viewBox="0 0 48 48" fill="none" xmlns="http://www.w3.org/2000/svg">
<rect x="16.183" y="3.69156" width="6" height="16" rx="3" transform="rotate(-37.9706 16.183 3.69156)" fill="#2835DE"/>
<rect x="30.9879" y="3.22198" width="6" height="16" rx="3" transform="rotate(1.64384 30.9879 3.22198)" fill="#2835DE"/>
<rect x="42.6922" y="12.3001" width="6" height="16" rx="3" transform="rotate(41.2583 42.6922 12.3001)" fill="#2835DE"/>
<rect x="45.9202" y="26.7563" width="6" height="16" rx="3" transform="rotate(80.8728 45.9202 26.7563)" fill="#2835DE"/>
<rect x="39.1894" y="39.951" width="6" height="16" rx="3" transform="rotate(120.487 39.1894 39.951)" fill="#2835DE"/>
<rect x="25.5911" y="45.8238" width="6" height="16" rx="3" transform="rotate(160.102 25.5911 45.8238)" fill="#2835DE"/>
<rect x="11.3712" y="41.6774" width="6" height="16" rx="3" transform="rotate(-160.284 11.3712 41.6774)" fill="#2835DE"/>
<rect x="3.06049" y="29.4163" width="6" height="16" rx="3" transform="rotate(-120.669 3.06049 29.4163)" fill="#2835DE"/>
<rect x="4.47626" y="14.6719" width="6" height="16" rx="3" transform="rotate(-81.0548 4.47626 14.6719)" fill="#2835DE"/>
</svg>
