<svg width="48" height="48" viewBox="0 0 48 48" fill="none" xmlns="http://www.w3.org/2000/svg">
<rect x="16.183" y="3.69156" width="6" height="16" rx="3" transform="rotate(-37.9706 16.183 3.69156)" fill="url(#paint0_linear_12_305)"/>
<rect x="30.9879" y="3.22198" width="6" height="16" rx="3" transform="rotate(1.64384 30.9879 3.22198)" fill="url(#paint1_linear_12_305)"/>
<rect x="42.6922" y="12.3001" width="6" height="16" rx="3" transform="rotate(41.2583 42.6922 12.3001)" fill="url(#paint2_linear_12_305)"/>
<rect x="45.9202" y="26.7563" width="6" height="16" rx="3" transform="rotate(80.8728 45.9202 26.7563)" fill="url(#paint3_linear_12_305)"/>
<rect x="39.1894" y="39.951" width="6" height="16" rx="3" transform="rotate(120.487 39.1894 39.951)" fill="url(#paint4_linear_12_305)"/>
<rect x="25.5911" y="45.8238" width="6" height="16" rx="3" transform="rotate(160.102 25.5911 45.8238)" fill="url(#paint5_linear_12_305)"/>
<rect x="11.3712" y="41.6774" width="6" height="16" rx="3" transform="rotate(-160.284 11.3712 41.6774)" fill="url(#paint6_linear_12_305)"/>
<rect x="3.06049" y="29.4163" width="6" height="16" rx="3" transform="rotate(-120.669 3.06049 29.4163)" fill="url(#paint7_linear_12_305)"/>
<rect x="4.47626" y="14.6719" width="6" height="16" rx="3" transform="rotate(-81.0548 4.47626 14.6719)" fill="url(#paint8_linear_12_305)"/>
<defs>
<linearGradient id="paint0_linear_12_305" x1="19.183" y1="3.69156" x2="19.183" y2="19.6916" gradientUnits="userSpaceOnUse">
<stop stop-color="#161D78"/>
<stop offset="1" stop-color="#2835DE"/>
</linearGradient>
<linearGradient id="paint1_linear_12_305" x1="33.9879" y1="3.22198" x2="33.9879" y2="19.222" gradientUnits="userSpaceOnUse">
<stop stop-color="#161D78"/>
<stop offset="1" stop-color="#2835DE"/>
</linearGradient>
<linearGradient id="paint2_linear_12_305" x1="45.6922" y1="12.3001" x2="45.6922" y2="28.3001" gradientUnits="userSpaceOnUse">
<stop stop-color="#161D78"/>
<stop offset="1" stop-color="#2835DE"/>
</linearGradient>
<linearGradient id="paint3_linear_12_305" x1="48.9202" y1="26.7563" x2="48.9202" y2="42.7563" gradientUnits="userSpaceOnUse">
<stop stop-color="#161D78"/>
<stop offset="1" stop-color="#2835DE"/>
</linearGradient>
<linearGradient id="paint4_linear_12_305" x1="42.1894" y1="39.951" x2="42.1894" y2="55.951" gradientUnits="userSpaceOnUse">
<stop stop-color="#161D78"/>
<stop offset="1" stop-color="#2835DE"/>
</linearGradient>
<linearGradient id="paint5_linear_12_305" x1="28.5911" y1="45.8238" x2="28.5911" y2="61.8238" gradientUnits="userSpaceOnUse">
<stop stop-color="#161D78"/>
<stop offset="1" stop-color="#2835DE"/>
</linearGradient>
<linearGradient id="paint6_linear_12_305" x1="14.3712" y1="41.6774" x2="14.3712" y2="57.6774" gradientUnits="userSpaceOnUse">
<stop stop-color="#161D78"/>
<stop offset="1" stop-color="#2835DE"/>
</linearGradient>
<linearGradient id="paint7_linear_12_305" x1="6.06049" y1="29.4163" x2="6.06049" y2="45.4163" gradientUnits="userSpaceOnUse">
<stop stop-color="#161D78"/>
<stop offset="1" stop-color="#2835DE"/>
</linearGradient>
<linearGradient id="paint8_linear_12_305" x1="7.47626" y1="14.6719" x2="7.47626" y2="30.6719" gradientUnits="userSpaceOnUse">
<stop stop-color="#161D78"/>
<stop offset="1" stop-color="#2835DE"/>
</linearGradient>
</defs>
</svg>
