<svg width="17" height="15" viewBox="0 0 17 15" fill="none" xmlns="http://www.w3.org/2000/svg">
<path d="M3.5 8.42857C3.44373 8.42857 3.38404 8.42857 3.3216 8.42857C2.03951 8.42857 1 7.38923 1 6.10714V6.10714C1 4.82505 2.03934 3.78571 3.32143 3.78571H3.5M3.5 8.42857V8.42857C3.02106 8.42857 2.61424 8.77907 2.54339 9.25274L1.98451 12.9893C1.9049 13.5215 2.31715 14 2.8553 14V14C3.23915 14 3.57877 13.7513 3.69467 13.3854L5.16667 8.73809M3.5 8.42857C3.50002 6.84207 3.5 3.78571 3.5 3.78571M3.5 8.42857L8.5 9.35714M3.5 3.78571L8.5 2.85714M8.5 2.85714L11.8333 1V11.2143L8.5 9.35714M8.5 2.85714V9.35714M14.3333 5.64286H16M14.3333 1.92857L16 1M14.3333 9.35714L16 10.2857" stroke="black" stroke-linecap="round" stroke-linejoin="round"/>
</svg>
