<svg width="17" height="17" viewBox="0 0 17 17" fill="none" xmlns="http://www.w3.org/2000/svg">
<path fill-rule="evenodd" clip-rule="evenodd" d="M10.1667 2.09308C10.1667 1.48939 9.67728 1 9.07358 1H7.92642C7.32272 1 6.83333 1.48939 6.83333 2.09308V2.3073C6.83333 2.66381 6.59406 2.97354 6.2648 3.11024V3.11024C5.93542 3.247 5.5519 3.19488 5.29971 2.94269L5.06917 2.71215C4.58381 2.22679 3.7969 2.22679 3.31155 2.71215L2.71214 3.31155C2.22679 3.7969 2.22679 4.58382 2.71214 5.06917L2.94269 5.29972C3.19488 5.5519 3.247 5.93542 3.11024 6.2648V6.2648C2.97354 6.59406 2.66381 6.83333 2.3073 6.83333H2.09308C1.48939 6.83333 1 7.32272 1 7.92642V9.07358C1 9.67728 1.48939 10.1667 2.09308 10.1667H2.43314C2.715 10.1667 2.96055 10.3549 3.06291 10.6176V10.6176C3.16127 10.8699 3.11438 11.1589 2.92285 11.3504L2.65753 11.6157C2.20233 12.0709 2.20233 12.8089 2.65753 13.2641L3.46157 14.0682C3.86406 14.4707 4.51663 14.4707 4.91912 14.0682L4.95621 14.0311C5.26956 13.7177 5.74988 13.6648 6.15559 13.8431V13.8431C6.54591 14.0146 6.83333 14.3841 6.83333 14.8104V14.9069C6.83333 15.5106 7.32272 16 7.92642 16H9.07358C9.67728 16 10.1667 15.5106 10.1667 14.9069V14.6927C10.1667 14.3362 10.4059 14.0265 10.7352 13.8898V13.8898C11.0646 13.753 11.4481 13.8051 11.7003 14.0573L11.7729 14.1299C12.1413 14.4983 12.7386 14.4983 13.107 14.1299L14.1299 13.107C14.4983 12.7386 14.4983 12.1413 14.1299 11.7729L14.0573 11.7003C13.8051 11.4481 13.753 11.0646 13.8898 10.7352V10.7352C14.0265 10.4059 14.3362 10.1667 14.6927 10.1667H14.9069C15.5106 10.1667 16 9.67728 16 9.07358V7.92642C16 7.32272 15.5106 6.83333 14.9069 6.83333H14.8104C14.3841 6.83333 14.0146 6.54591 13.8431 6.15559V6.15559C13.6648 5.74988 13.7177 5.26956 14.0311 4.95621L14.0682 4.91912C14.4707 4.51664 14.4707 3.86408 14.0682 3.46159L13.2641 2.65754C12.8089 2.20234 12.0709 2.20234 11.6157 2.65754L11.3504 2.92285C11.1589 3.11438 10.8699 3.16127 10.6176 3.06291V3.06291C10.3549 2.96055 10.1667 2.715 10.1667 2.43314V2.09308ZM8.5 11C9.88071 11 11 9.88071 11 8.5C11 7.11929 9.88071 6 8.5 6C7.11929 6 6 7.11929 6 8.5C6 9.88071 7.11929 11 8.5 11Z" stroke="black" stroke-linejoin="round"/>
</svg>
